<svg width="174" height="93" viewBox="0 0 174 93" fill="none" xmlns="http://www.w3.org/2000/svg">
<path d="M101.518 32.6316L90.0236 49.0662H97.196C98.2968 49.0662 99.1396 48.8254 99.7244 48.3438C100.318 47.8622 100.842 46.8861 101.298 45.4155L101.724 45.4929L100.898 50.124H86.6567V49.6467L97.8797 33.6765H92.2811C91.3523 33.6765 90.6772 33.7797 90.2558 33.9861C89.843 34.1839 89.5248 34.4763 89.3012 34.8633C89.0862 35.2417 88.8884 35.9555 88.7078 37.0047H88.2176L88.5788 32.6316H101.518ZM126.568 32.2317L126.968 38.1786H126.568C126.035 36.3984 125.274 35.117 124.285 34.3344C123.296 33.5518 122.109 33.1605 120.724 33.1605C119.563 33.1605 118.514 33.4572 117.577 34.0506C116.639 34.6354 115.9 35.5728 115.358 36.8628C114.825 38.1528 114.558 39.7567 114.558 41.6745C114.558 43.2569 114.812 44.6286 115.319 45.7896C115.826 46.9506 116.588 47.8407 117.602 48.4599C118.626 49.0791 119.791 49.3887 121.098 49.3887C122.233 49.3887 123.235 49.1479 124.104 48.6663C124.973 48.1761 125.927 47.2086 126.968 45.7638L127.368 46.0218C126.49 47.5784 125.467 48.7179 124.297 49.4403C123.128 50.1627 121.739 50.5239 120.131 50.5239C117.233 50.5239 114.988 49.4489 113.397 47.2989C112.21 45.6993 111.617 43.8159 111.617 41.6487C111.617 39.9029 112.008 38.299 112.791 36.837C113.573 35.375 114.648 34.2441 116.016 33.4443C117.392 32.6359 118.892 32.2317 120.518 32.2317C121.782 32.2317 123.029 32.5413 124.259 33.1605C124.62 33.3497 124.878 33.4443 125.033 33.4443C125.265 33.4443 125.467 33.3626 125.639 33.1992C125.863 32.967 126.022 32.6445 126.116 32.2317H126.568ZM135.681 37.9593C137.47 37.9593 138.906 38.6387 139.99 39.9975C140.91 41.1585 141.37 42.4915 141.37 43.9965C141.37 45.0543 141.116 46.125 140.609 47.2086C140.101 48.2922 139.4 49.1092 138.506 49.6596C137.62 50.21 136.631 50.4852 135.539 50.4852C133.759 50.4852 132.344 49.7757 131.295 48.3567C130.409 47.1613 129.966 45.8197 129.966 44.3319C129.966 43.2483 130.233 42.1733 130.766 41.1069C131.308 40.0319 132.017 39.2407 132.895 38.7333C133.772 38.2173 134.701 37.9593 135.681 37.9593ZM135.281 38.7978C134.825 38.7978 134.365 38.9354 133.901 39.2106C133.445 39.4772 133.075 39.9502 132.791 40.6296C132.508 41.309 132.366 42.1819 132.366 43.2483C132.366 44.9683 132.705 46.4518 133.385 47.6988C134.073 48.9458 134.976 49.5693 136.094 49.5693C136.928 49.5693 137.616 49.2253 138.158 48.5373C138.7 47.8493 138.97 46.6668 138.97 44.9898C138.97 42.8914 138.519 41.2402 137.616 40.0362C137.005 39.2106 136.227 38.7978 135.281 38.7978ZM147.361 37.9593V40.6167C148.35 38.8451 149.365 37.9593 150.406 37.9593C150.879 37.9593 151.27 38.1055 151.579 38.3979C151.889 38.6817 152.044 39.0128 152.044 39.3912C152.044 39.7266 151.932 40.0104 151.708 40.2426C151.485 40.4748 151.218 40.5909 150.909 40.5909C150.608 40.5909 150.268 40.4447 149.89 40.1523C149.52 39.8513 149.245 39.7008 149.064 39.7008C148.909 39.7008 148.741 39.7868 148.561 39.9588C148.174 40.3114 147.774 40.8919 147.361 41.7003V47.3634C147.361 48.017 147.443 48.5115 147.606 48.8469C147.718 49.0791 147.916 49.2726 148.2 49.4274C148.483 49.5822 148.892 49.6596 149.425 49.6596V50.124H143.375V49.6596C143.977 49.6596 144.424 49.565 144.717 49.3758C144.932 49.2382 145.082 49.0189 145.168 48.7179C145.211 48.5717 145.233 48.1546 145.233 47.4666V42.8871C145.233 41.5111 145.203 40.6941 145.142 40.4361C145.091 40.1695 144.988 39.976 144.833 39.8556C144.687 39.7352 144.502 39.675 144.278 39.675C144.011 39.675 143.71 39.7395 143.375 39.8685L143.246 39.4041L146.819 37.9593H147.361ZM152.643 39.4815L156.281 38.0109H156.771V40.7715C157.382 39.7309 157.992 39.0042 158.603 38.5914C159.222 38.17 159.871 37.9593 160.551 37.9593C161.737 37.9593 162.726 38.4237 163.518 39.3525C164.489 40.4877 164.975 41.9669 164.975 43.7901C164.975 45.8283 164.391 47.5139 163.221 48.8469C162.258 49.9391 161.045 50.4852 159.583 50.4852C158.947 50.4852 158.396 50.3949 157.932 50.2143C157.588 50.0853 157.201 49.8273 156.771 49.4403V53.0394C156.771 53.8478 156.818 54.3595 156.913 54.5745C157.016 54.7981 157.188 54.9744 157.429 55.1034C157.678 55.2324 158.125 55.2969 158.77 55.2969V55.7742H152.578V55.2969H152.901C153.374 55.3055 153.778 55.2152 154.114 55.026C154.277 54.9314 154.402 54.7766 154.488 54.5616C154.582 54.3552 154.63 53.822 154.63 52.962V41.7906C154.63 41.0252 154.595 40.5393 154.526 40.3329C154.458 40.1265 154.346 39.9717 154.191 39.8685C154.045 39.7653 153.843 39.7137 153.585 39.7137C153.378 39.7137 153.116 39.7739 152.798 39.8943L152.643 39.4815ZM156.771 41.5326V45.9444C156.771 46.899 156.81 47.5268 156.887 47.8278C157.007 48.3266 157.3 48.7652 157.764 49.1436C158.237 49.522 158.831 49.7112 159.544 49.7112C160.404 49.7112 161.101 49.3758 161.634 48.705C162.331 47.8278 162.679 46.5937 162.679 45.0027C162.679 43.1967 162.284 41.8078 161.492 40.836C160.942 40.1652 160.288 39.8298 159.532 39.8298C159.119 39.8298 158.71 39.933 158.306 40.1394C157.996 40.2942 157.485 40.7586 156.771 41.5326ZM169.973 47.6214C170.378 47.6214 170.717 47.7633 170.992 48.0471C171.268 48.3223 171.405 48.6577 171.405 49.0533C171.405 49.4489 171.263 49.7886 170.98 50.0724C170.704 50.3476 170.369 50.4852 169.973 50.4852C169.578 50.4852 169.238 50.3476 168.954 50.0724C168.679 49.7886 168.541 49.4489 168.541 49.0533C168.541 48.6491 168.679 48.3094 168.954 48.0342C169.238 47.759 169.578 47.6214 169.973 47.6214Z" fill="#191A20"/>
<path d="M86.841 58.875V54.8547H87.1914L89.0292 57.9905H88.8454L90.6661 54.8547H91.0164V58.875H90.6086V55.4922H90.7063L89.0292 58.3638H88.8282L87.1397 55.4922H87.2488V58.875H86.841ZM95.3358 58.875V58.2088L95.3186 58.0997V56.9854C95.3186 56.7289 95.2459 56.5317 95.1004 56.3939C94.9587 56.256 94.7462 56.1871 94.4628 56.1871C94.2676 56.1871 94.0819 56.2197 93.9057 56.2848C93.7296 56.3499 93.5803 56.436 93.4578 56.5432L93.274 56.2388C93.4271 56.1086 93.6109 56.0091 93.8253 55.9402C94.0398 55.8674 94.2657 55.831 94.5031 55.831C94.8936 55.831 95.1942 55.9287 95.4048 56.124C95.6192 56.3154 95.7264 56.6083 95.7264 57.0027V58.875H95.3358ZM94.2963 58.9037C94.0704 58.9037 93.8732 58.8673 93.7047 58.7946C93.5401 58.718 93.4137 58.6146 93.3257 58.4845C93.2376 58.3504 93.1936 58.1973 93.1936 58.025C93.1936 57.868 93.2299 57.7263 93.3027 57.6C93.3793 57.4698 93.5018 57.3664 93.6703 57.2898C93.8426 57.2094 94.0723 57.1692 94.3595 57.1692H95.399V57.4736H94.371C94.08 57.4736 93.877 57.5253 93.7622 57.6287C93.6511 57.7321 93.5956 57.8603 93.5956 58.0135C93.5956 58.1858 93.6626 58.3236 93.7966 58.427C93.9306 58.5304 94.1182 58.5821 94.3595 58.5821C94.5892 58.5821 94.7864 58.5304 94.951 58.427C95.1195 58.3198 95.242 58.1667 95.3186 57.9676L95.4105 58.249C95.3339 58.4481 95.1999 58.607 95.0085 58.7257C94.8208 58.8444 94.5835 58.9037 94.2963 58.9037ZM98.3617 58.0939L98.3731 57.5713L100.251 55.8598H100.751L99.4242 57.129L99.1944 57.3243L98.3617 58.0939ZM98.04 58.875V54.6135H98.4478V58.875H98.04ZM100.378 58.875L99.1198 57.3071L99.384 56.9912L100.877 58.875H100.378ZM103.858 58.9037C103.544 58.9037 103.269 58.8386 103.031 58.7084C102.794 58.5744 102.608 58.3926 102.474 58.1628C102.34 57.9293 102.273 57.6632 102.273 57.3645C102.273 57.0659 102.336 56.8017 102.463 56.5719C102.593 56.3422 102.769 56.1622 102.991 56.0321C103.217 55.898 103.47 55.831 103.749 55.831C104.033 55.831 104.283 55.8961 104.502 56.0263C104.724 56.1527 104.898 56.3326 105.024 56.5662C105.151 56.7959 105.214 57.062 105.214 57.3645C105.214 57.3837 105.212 57.4047 105.208 57.4277C105.208 57.4468 105.208 57.4679 105.208 57.4909H102.583V57.1865H104.99L104.829 57.3071C104.829 57.0888 104.781 56.8955 104.686 56.727C104.594 56.5547 104.467 56.4207 104.306 56.325C104.146 56.2292 103.96 56.1814 103.749 56.1814C103.543 56.1814 103.357 56.2292 103.192 56.325C103.028 56.4207 102.899 56.5547 102.807 56.727C102.716 56.8993 102.67 57.0965 102.67 57.3186V57.3817C102.67 57.6115 102.719 57.8144 102.819 57.9905C102.922 58.1628 103.064 58.2988 103.244 58.3983C103.428 58.494 103.636 58.5419 103.87 58.5419C104.054 58.5419 104.224 58.5093 104.381 58.4443C104.542 58.3792 104.68 58.2796 104.795 58.1456L105.024 58.4098C104.89 58.5706 104.722 58.6931 104.519 58.7774C104.32 58.8616 104.1 58.9037 103.858 58.9037ZM109.959 58.875V55.8598H110.367V58.875H109.959ZM110.166 55.1935C110.082 55.1935 110.011 55.1648 109.953 55.1074C109.896 55.05 109.867 54.981 109.867 54.9006C109.867 54.8202 109.896 54.7532 109.953 54.6996C110.011 54.6422 110.082 54.6135 110.166 54.6135C110.25 54.6135 110.321 54.6403 110.378 54.6939C110.436 54.7475 110.465 54.8145 110.465 54.8949C110.465 54.9791 110.436 55.05 110.378 55.1074C110.325 55.1648 110.254 55.1935 110.166 55.1935ZM113.661 58.9037C113.378 58.9037 113.16 58.8271 113.006 58.674C112.853 58.5208 112.777 58.3045 112.777 58.025V55.1935H113.184V58.002C113.184 58.1781 113.228 58.3141 113.316 58.4098C113.408 58.5055 113.539 58.5534 113.707 58.5534C113.887 58.5534 114.036 58.5017 114.155 58.3983L114.299 58.6912C114.218 58.764 114.121 58.8176 114.006 58.852C113.895 58.8865 113.78 58.9037 113.661 58.9037ZM112.237 56.1986V55.8598H114.103V56.1986H112.237ZM120.495 55.831C120.741 55.831 120.955 55.8789 121.139 55.9746C121.326 56.0665 121.472 56.2082 121.575 56.3996C121.682 56.5911 121.736 56.8323 121.736 57.1233V58.875H121.328V57.1635C121.328 56.8457 121.248 56.6064 121.087 56.4456C120.93 56.2809 120.708 56.1986 120.421 56.1986C120.206 56.1986 120.019 56.2426 119.858 56.3307C119.701 56.4149 119.578 56.5394 119.49 56.704C119.406 56.8648 119.364 57.0601 119.364 57.2898V58.875H118.956V54.6135H119.364V56.6868L119.284 56.5317C119.379 56.3135 119.533 56.1431 119.743 56.0206C119.954 55.8942 120.204 55.831 120.495 55.831ZM125.933 58.875V58.2088L125.916 58.0997V56.9854C125.916 56.7289 125.843 56.5317 125.698 56.3939C125.556 56.256 125.343 56.1871 125.06 56.1871C124.865 56.1871 124.679 56.2197 124.503 56.2848C124.327 56.3499 124.178 56.436 124.055 56.5432L123.871 56.2388C124.024 56.1086 124.208 56.0091 124.423 55.9402C124.637 55.8674 124.863 55.831 125.1 55.831C125.491 55.831 125.791 55.9287 126.002 56.124C126.216 56.3154 126.324 56.6083 126.324 57.0027V58.875H125.933ZM124.894 58.9037C124.668 58.9037 124.47 58.8673 124.302 58.7946C124.137 58.718 124.011 58.6146 123.923 58.4845C123.835 58.3504 123.791 58.1973 123.791 58.025C123.791 57.868 123.827 57.7263 123.9 57.6C123.977 57.4698 124.099 57.3664 124.268 57.2898C124.44 57.2094 124.67 57.1692 124.957 57.1692H125.996V57.4736H124.968C124.677 57.4736 124.474 57.5253 124.359 57.6287C124.248 57.7321 124.193 57.8603 124.193 58.0135C124.193 58.1858 124.26 58.3236 124.394 58.427C124.528 58.5304 124.716 58.5821 124.957 58.5821C125.186 58.5821 125.384 58.5304 125.548 58.427C125.717 58.3198 125.839 58.1667 125.916 57.9676L126.008 58.249C125.931 58.4481 125.797 58.607 125.606 58.7257C125.418 58.8444 125.181 58.9037 124.894 58.9037ZM130.194 58.9037C129.933 58.9037 129.698 58.8444 129.487 58.7257C129.277 58.6031 129.108 58.4289 128.982 58.203C128.859 57.9733 128.798 57.6938 128.798 57.3645C128.798 57.0352 128.859 56.7576 128.982 56.5317C129.104 56.302 129.271 56.1278 129.482 56.0091C129.692 55.8904 129.93 55.831 130.194 55.831C130.481 55.831 130.737 55.8961 130.963 56.0263C131.193 56.1527 131.373 56.3326 131.503 56.5662C131.633 56.7959 131.699 57.062 131.699 57.3645C131.699 57.6708 131.633 57.9388 131.503 58.1686C131.373 58.3983 131.193 58.5783 130.963 58.7084C130.737 58.8386 130.481 58.9037 130.194 58.9037ZM128.637 59.9892V55.8598H129.028V56.7672L128.988 57.3703L129.045 57.979V59.9892H128.637ZM130.165 58.5419C130.379 58.5419 130.571 58.494 130.739 58.3983C130.908 58.2988 131.042 58.1609 131.141 57.9848C131.241 57.8048 131.291 57.5981 131.291 57.3645C131.291 57.1309 131.241 56.9261 131.141 56.75C131.042 56.5738 130.908 56.436 130.739 56.3365C130.571 56.2369 130.379 56.1871 130.165 56.1871C129.951 56.1871 129.757 56.2369 129.585 56.3365C129.417 56.436 129.283 56.5738 129.183 56.75C129.087 56.9261 129.039 57.1309 129.039 57.3645C129.039 57.5981 129.087 57.8048 129.183 57.9848C129.283 58.1609 129.417 58.2988 129.585 58.3983C129.757 58.494 129.951 58.5419 130.165 58.5419ZM135.292 58.9037C135.032 58.9037 134.796 58.8444 134.586 58.7257C134.375 58.6031 134.207 58.4289 134.08 58.203C133.958 57.9733 133.897 57.6938 133.897 57.3645C133.897 57.0352 133.958 56.7576 134.08 56.5317C134.203 56.302 134.37 56.1278 134.58 56.0091C134.791 55.8904 135.028 55.831 135.292 55.831C135.579 55.831 135.836 55.8961 136.062 56.0263C136.292 56.1527 136.472 56.3326 136.602 56.5662C136.732 56.7959 136.797 57.062 136.797 57.3645C136.797 57.6708 136.732 57.9388 136.602 58.1686C136.472 58.3983 136.292 58.5783 136.062 58.7084C135.836 58.8386 135.579 58.9037 135.292 58.9037ZM133.736 59.9892V55.8598H134.126V56.7672L134.086 57.3703L134.144 57.979V59.9892H133.736ZM135.264 58.5419C135.478 58.5419 135.669 58.494 135.838 58.3983C136.006 58.2988 136.14 58.1609 136.24 57.9848C136.34 57.8048 136.389 57.5981 136.389 57.3645C136.389 57.1309 136.34 56.9261 136.24 56.75C136.14 56.5738 136.006 56.436 135.838 56.3365C135.669 56.2369 135.478 56.1871 135.264 56.1871C135.049 56.1871 134.856 56.2369 134.684 56.3365C134.515 56.436 134.381 56.5738 134.281 56.75C134.186 56.9261 134.138 57.1309 134.138 57.3645C134.138 57.5981 134.186 57.8048 134.281 57.9848C134.381 58.1609 134.515 58.2988 134.684 58.3983C134.856 58.494 135.049 58.5419 135.264 58.5419ZM140.115 58.9037C139.801 58.9037 139.526 58.8386 139.288 58.7084C139.051 58.5744 138.865 58.3926 138.731 58.1628C138.597 57.9293 138.53 57.6632 138.53 57.3645C138.53 57.0659 138.593 56.8017 138.72 56.5719C138.85 56.3422 139.026 56.1622 139.248 56.0321C139.474 55.898 139.727 55.831 140.006 55.831C140.289 55.831 140.54 55.8961 140.758 56.0263C140.981 56.1527 141.155 56.3326 141.281 56.5662C141.407 56.7959 141.471 57.062 141.471 57.3645C141.471 57.3837 141.469 57.4047 141.465 57.4277C141.465 57.4468 141.465 57.4679 141.465 57.4909H138.84V57.1865H141.247L141.086 57.3071C141.086 57.0888 141.038 56.8955 140.942 56.727C140.85 56.5547 140.724 56.4207 140.563 56.325C140.402 56.2292 140.217 56.1814 140.006 56.1814C139.799 56.1814 139.614 56.2292 139.449 56.325C139.284 56.4207 139.156 56.5547 139.064 56.727C138.972 56.8993 138.926 57.0965 138.926 57.3186V57.3817C138.926 57.6115 138.976 57.8144 139.076 57.9905C139.179 58.1628 139.321 58.2988 139.501 58.3983C139.684 58.494 139.893 58.5419 140.127 58.5419C140.31 58.5419 140.481 58.5093 140.638 58.4443C140.799 58.3792 140.936 58.2796 141.051 58.1456L141.281 58.4098C141.147 58.5706 140.979 58.6931 140.776 58.7774C140.577 58.8616 140.356 58.9037 140.115 58.9037ZM145.046 55.831C145.291 55.831 145.505 55.8789 145.689 55.9746C145.877 56.0665 146.022 56.2082 146.126 56.3996C146.233 56.5911 146.286 56.8323 146.286 57.1233V58.875H145.879V57.1635C145.879 56.8457 145.798 56.6064 145.637 56.4456C145.48 56.2809 145.258 56.1986 144.971 56.1986C144.757 56.1986 144.569 56.2426 144.408 56.3307C144.251 56.4149 144.129 56.5394 144.041 56.704C143.957 56.8648 143.914 57.0601 143.914 57.2898V58.875H143.507V55.8598H143.897V56.6868L143.834 56.5317C143.93 56.3135 144.083 56.1431 144.294 56.0206C144.504 55.8942 144.755 55.831 145.046 55.831ZM148.634 58.9037C148.55 58.9037 148.477 58.8731 148.416 58.8118C148.359 58.7506 148.33 58.6759 148.33 58.5878C148.33 58.4959 148.359 58.4213 148.416 58.3638C148.477 58.3064 148.55 58.2777 148.634 58.2777C148.718 58.2777 148.789 58.3064 148.847 58.3638C148.908 58.4213 148.939 58.4959 148.939 58.5878C148.939 58.6759 148.908 58.7506 148.847 58.8118C148.789 58.8731 148.718 58.9037 148.634 58.9037Z" fill="#191A20"/>
<path d="M87.7512 0C56.803 16.1165 39.7354 25.5868 9.58776 42.9261C28.6503 35.5828 39.3075 31.2849 58.1913 22.8655C34.3657 50.2015 21.7328 65.5176 0 92.8259C40.3043 70.4941 56.7618 60.921 78.1536 47.6629C60.7427 54.422 50.8795 58.5638 33.1179 66.5298C55.0084 41.1368 66.9572 26.5561 87.7512 0Z" fill="#191A20"/>
</svg>
