<svg width="210" height="126" viewBox="0 0 210 126" fill="none" xmlns="http://www.w3.org/2000/svg">
<path d="M133.032 34.0724L120.95 51.3471H128.489C129.646 51.3471 130.532 51.094 131.147 50.5878C131.771 50.0816 132.322 49.0556 132.801 47.5098L133.249 47.5911L132.381 52.459H117.411V51.9573L129.208 35.1707H123.323C122.347 35.1707 121.637 35.2792 121.194 35.4961C120.76 35.704 120.426 36.0114 120.191 36.4182C119.965 36.8159 119.757 37.5662 119.567 38.669H119.052L119.431 34.0724H133.032ZM159.362 33.652L159.783 39.9029H159.362C158.802 38.0317 158.002 36.6848 156.962 35.8622C155.923 35.0396 154.675 34.6283 153.22 34.6283C152 34.6283 150.897 34.9402 149.912 35.5639C148.926 36.1786 148.149 37.1639 147.579 38.5199C147.019 39.8758 146.739 41.5617 146.739 43.5775C146.739 45.2408 147.005 46.6827 147.539 47.903C148.072 49.1234 148.872 50.059 149.939 50.7098C151.014 51.3607 152.239 51.6861 153.613 51.6861C154.806 51.6861 155.86 51.433 156.773 50.9268C157.686 50.4115 158.689 49.3945 159.783 47.8759L160.203 48.1471C159.281 49.7833 158.205 50.981 156.976 51.7403C155.747 52.4997 154.287 52.8793 152.596 52.8793C149.55 52.8793 147.191 51.7494 145.518 49.4895C144.271 47.8081 143.647 45.8284 143.647 43.5504C143.647 41.7154 144.058 40.0295 144.881 38.4928C145.704 36.956 146.834 35.7673 148.271 34.9266C149.717 34.0769 151.295 33.652 153.003 33.652C154.332 33.652 155.643 33.9775 156.935 34.6283C157.315 34.8272 157.586 34.9266 157.749 34.9266C157.993 34.9266 158.205 34.8407 158.386 34.669C158.621 34.4249 158.788 34.0859 158.888 33.652H159.362ZM168.941 39.6724C170.822 39.6724 172.331 40.3866 173.47 41.8148C174.437 43.0352 174.921 44.4363 174.921 46.0182C174.921 47.1301 174.654 48.2556 174.121 49.3945C173.588 50.5335 172.851 51.3923 171.911 51.9708C170.98 52.5494 169.94 52.8386 168.792 52.8386C166.921 52.8386 165.434 52.0929 164.331 50.6013C163.4 49.3448 162.935 47.9346 162.935 46.3708C162.935 45.2318 163.215 44.1018 163.775 42.9809C164.345 41.851 165.09 41.0193 166.013 40.486C166.935 39.9436 167.911 39.6724 168.941 39.6724ZM168.521 40.5538C168.042 40.5538 167.558 40.6984 167.07 40.9877C166.591 41.2679 166.202 41.7651 165.904 42.4792C165.606 43.1934 165.457 44.1109 165.457 45.2318C165.457 47.0397 165.814 48.5991 166.528 49.9098C167.251 51.2206 168.2 51.8759 169.375 51.8759C170.252 51.8759 170.975 51.5143 171.545 50.7912C172.114 50.068 172.399 48.8251 172.399 47.0623C172.399 44.8567 171.924 43.121 170.975 41.8555C170.333 40.9877 169.515 40.5538 168.521 40.5538ZM181.219 39.6724V42.4657C182.258 40.6035 183.325 39.6724 184.419 39.6724C184.916 39.6724 185.327 39.8261 185.653 40.1334C185.978 40.4318 186.141 40.7798 186.141 41.1775C186.141 41.5301 186.023 41.8284 185.788 42.0724C185.553 42.3165 185.273 42.4386 184.947 42.4386C184.631 42.4386 184.274 42.2849 183.876 41.9775C183.488 41.6611 183.198 41.503 183.008 41.503C182.846 41.503 182.669 41.5933 182.48 41.7741C182.073 42.1448 181.653 42.7549 181.219 43.6047V49.5573C181.219 50.2443 181.305 50.7641 181.476 51.1166C181.594 51.3607 181.802 51.5641 182.1 51.7268C182.398 51.8895 182.828 51.9708 183.388 51.9708V52.459H177.029V51.9708C177.662 51.9708 178.132 51.8714 178.439 51.6725C178.665 51.5279 178.823 51.2974 178.914 50.981C178.959 50.8273 178.981 50.3889 178.981 49.6657V44.8521C178.981 43.4058 178.95 42.547 178.886 42.2758C178.832 41.9956 178.724 41.7922 178.561 41.6657C178.407 41.5391 178.213 41.4758 177.978 41.4758C177.698 41.4758 177.381 41.5436 177.029 41.6792L176.893 41.1911L180.649 39.6724H181.219ZM186.77 41.2724L190.594 39.7267H191.109V42.6284C191.751 41.5346 192.393 40.7707 193.035 40.3368C193.686 39.8939 194.368 39.6724 195.082 39.6724C196.33 39.6724 197.369 40.1606 198.201 41.1368C199.223 42.3301 199.733 43.8849 199.733 45.8013C199.733 47.9437 199.119 49.7155 197.889 51.1166C196.877 52.2646 195.602 52.8386 194.065 52.8386C193.396 52.8386 192.818 52.7437 192.33 52.5539C191.968 52.4183 191.561 52.1471 191.109 51.7403V55.5234C191.109 56.3731 191.159 56.911 191.259 57.137C191.367 57.372 191.548 57.5573 191.801 57.6929C192.063 57.8285 192.533 57.8963 193.211 57.8963V58.398H186.703V57.8963H187.042C187.539 57.9054 187.964 57.8104 188.316 57.6116C188.488 57.5121 188.619 57.3494 188.709 57.1234C188.809 56.9065 188.859 56.346 188.859 55.4421V43.6996C188.859 42.8951 188.822 42.3843 188.75 42.1674C188.678 41.9504 188.56 41.7877 188.398 41.6792C188.244 41.5708 188.031 41.5165 187.76 41.5165C187.543 41.5165 187.268 41.5798 186.933 41.7063L186.77 41.2724ZM191.109 43.4284V48.0657C191.109 49.0691 191.15 49.729 191.231 50.0454C191.358 50.5697 191.665 51.0307 192.154 51.4285C192.651 51.8262 193.274 52.0251 194.025 52.0251C194.929 52.0251 195.661 51.6725 196.221 50.9674C196.954 50.0454 197.32 48.7482 197.32 47.0759C197.32 45.1776 196.904 43.7177 196.072 42.6962C195.494 41.9911 194.807 41.6385 194.011 41.6385C193.577 41.6385 193.148 41.747 192.723 41.964C192.398 42.1267 191.86 42.6148 191.109 43.4284ZM204.987 49.8285C205.412 49.8285 205.769 49.9776 206.058 50.2759C206.347 50.5652 206.492 50.9177 206.492 51.3336C206.492 51.7494 206.343 52.1064 206.044 52.4047C205.755 52.694 205.403 52.8386 204.987 52.8386C204.571 52.8386 204.214 52.694 203.916 52.4047C203.626 52.1064 203.482 51.7494 203.482 51.3336C203.482 50.9087 203.626 50.5516 203.916 50.2624C204.214 49.9731 204.571 49.8285 204.987 49.8285Z" fill="white"/>
<path d="M117.602 61.5776V57.3518H117.97L119.902 60.648H119.709L121.622 57.3518H121.991V61.5776H121.562V58.0219H121.665L119.902 61.0404H119.691L117.916 58.0219H118.03V61.5776H117.602ZM126.531 61.5776V60.8774L126.513 60.7627V59.5915C126.513 59.3218 126.436 59.1146 126.283 58.9697C126.134 58.8248 125.911 58.7524 125.613 58.7524C125.408 58.7524 125.213 58.7866 125.028 58.855C124.843 58.9234 124.686 59.014 124.557 59.1267L124.364 58.8067C124.525 58.6699 124.718 58.5652 124.943 58.4928C125.169 58.4163 125.406 58.3781 125.655 58.3781C126.066 58.3781 126.382 58.4807 126.603 58.686C126.829 58.8872 126.941 59.1951 126.941 59.6096V61.5776H126.531ZM125.438 61.6078C125.201 61.6078 124.993 61.5696 124.816 61.4931C124.643 61.4126 124.51 61.304 124.418 61.1671C124.325 61.0263 124.279 60.8653 124.279 60.6842C124.279 60.5192 124.317 60.3703 124.394 60.2374C124.474 60.1006 124.603 59.9919 124.78 59.9115C124.961 59.8269 125.203 59.7847 125.505 59.7847H126.597V60.1046H125.517C125.211 60.1046 124.997 60.159 124.877 60.2676C124.76 60.3763 124.702 60.5111 124.702 60.6721C124.702 60.8532 124.772 60.9981 124.913 61.1068C125.054 61.2154 125.251 61.2698 125.505 61.2698C125.746 61.2698 125.953 61.2154 126.126 61.1068C126.303 60.9941 126.432 60.8331 126.513 60.6238L126.609 60.9196C126.529 61.1289 126.388 61.2959 126.187 61.4207C125.99 61.5454 125.74 61.6078 125.438 61.6078ZM129.711 60.7566L129.723 60.2073L131.697 58.4083H132.223L130.828 59.7424L130.587 59.9477L129.711 60.7566ZM129.373 61.5776V57.0983H129.802V61.5776H129.373ZM131.83 61.5776L130.508 59.9296L130.786 59.5975L132.355 61.5776H131.83ZM135.489 61.6078C135.159 61.6078 134.869 61.5394 134.62 61.4026C134.37 61.2617 134.175 61.0705 134.034 60.8291C133.893 60.5836 133.823 60.3039 133.823 59.9899C133.823 59.676 133.889 59.3983 134.022 59.1568C134.159 58.9154 134.344 58.7262 134.578 58.5894C134.815 58.4485 135.081 58.3781 135.374 58.3781C135.672 58.3781 135.936 58.4465 136.165 58.5833C136.399 58.7161 136.582 58.9053 136.715 59.1508C136.847 59.3923 136.914 59.672 136.914 59.9899C136.914 60.0101 136.912 60.0322 136.908 60.0563C136.908 60.0765 136.908 60.0986 136.908 60.1227H134.149V59.8028H136.678L136.509 59.9296C136.509 59.7002 136.459 59.4969 136.358 59.3198C136.262 59.1387 136.129 58.9979 135.96 58.8973C135.791 58.7966 135.596 58.7463 135.374 58.7463C135.157 58.7463 134.962 58.7966 134.789 58.8973C134.616 58.9979 134.481 59.1387 134.384 59.3198C134.288 59.5009 134.239 59.7082 134.239 59.9416V60.008C134.239 60.2495 134.292 60.4628 134.396 60.648C134.505 60.8291 134.654 60.9719 134.843 61.0766C135.036 61.1772 135.256 61.2275 135.501 61.2275C135.694 61.2275 135.873 61.1933 136.038 61.1249C136.208 61.0565 136.352 60.9518 136.473 60.811L136.715 61.0886C136.574 61.2577 136.397 61.3865 136.183 61.475C135.974 61.5636 135.743 61.6078 135.489 61.6078ZM141.902 61.5776V58.4083H142.33V61.5776H141.902ZM142.119 57.708C142.031 57.708 141.956 57.6778 141.896 57.6174C141.835 57.5571 141.805 57.4846 141.805 57.4001C141.805 57.3156 141.835 57.2452 141.896 57.1888C141.956 57.1284 142.031 57.0983 142.119 57.0983C142.208 57.0983 142.282 57.1264 142.342 57.1828C142.403 57.2391 142.433 57.3095 142.433 57.3941C142.433 57.4826 142.403 57.5571 142.342 57.6174C142.286 57.6778 142.212 57.708 142.119 57.708ZM145.793 61.6078C145.495 61.6078 145.266 61.5273 145.105 61.3663C144.944 61.2054 144.863 60.978 144.863 60.6842V57.708H145.292V60.66C145.292 60.8452 145.338 60.988 145.431 61.0886C145.527 61.1893 145.664 61.2396 145.841 61.2396C146.03 61.2396 146.187 61.1852 146.312 61.0766L146.463 61.3845C146.378 61.4609 146.276 61.5173 146.155 61.5535C146.038 61.5897 145.918 61.6078 145.793 61.6078ZM144.296 58.7644V58.4083H146.258V58.7644H144.296ZM152.977 58.3781C153.234 58.3781 153.46 58.4284 153.653 58.529C153.85 58.6256 154.003 58.7745 154.111 58.9757C154.224 59.177 154.281 59.4305 154.281 59.7364V61.5776H153.852V59.7786C153.852 59.4446 153.767 59.1931 153.598 59.024C153.433 58.851 153.2 58.7644 152.898 58.7644C152.673 58.7644 152.475 58.8107 152.306 58.9033C152.141 58.9918 152.013 59.1226 151.92 59.2957C151.832 59.4647 151.787 59.67 151.787 59.9115V61.5776H151.359V57.0983H151.787V59.2776L151.703 59.1146C151.803 58.8852 151.964 58.7061 152.186 58.5773C152.407 58.4445 152.671 58.3781 152.977 58.3781ZM158.692 61.5776V60.8774L158.674 60.7627V59.5915C158.674 59.3218 158.598 59.1146 158.445 58.9697C158.296 58.8248 158.072 58.7524 157.775 58.7524C157.569 58.7524 157.374 58.7866 157.189 58.855C157.004 58.9234 156.847 59.014 156.718 59.1267L156.525 58.8067C156.686 58.6699 156.879 58.5652 157.104 58.4928C157.33 58.4163 157.567 58.3781 157.817 58.3781C158.227 58.3781 158.543 58.4807 158.765 58.686C158.99 58.8872 159.103 59.1951 159.103 59.6096V61.5776H158.692ZM157.6 61.6078C157.362 61.6078 157.155 61.5696 156.978 61.4931C156.805 61.4126 156.672 61.304 156.579 61.1671C156.487 61.0263 156.44 60.8653 156.44 60.6842C156.44 60.5192 156.479 60.3703 156.555 60.2374C156.636 60.1006 156.764 59.9919 156.941 59.9115C157.123 59.8269 157.364 59.7847 157.666 59.7847H158.759V60.1046H157.678C157.372 60.1046 157.159 60.159 157.038 60.2676C156.921 60.3763 156.863 60.5111 156.863 60.6721C156.863 60.8532 156.933 60.9981 157.074 61.1068C157.215 61.2154 157.412 61.2698 157.666 61.2698C157.907 61.2698 158.115 61.2154 158.288 61.1068C158.465 60.9941 158.594 60.8331 158.674 60.6238L158.771 60.9196C158.69 61.1289 158.549 61.2959 158.348 61.4207C158.151 61.5454 157.901 61.6078 157.6 61.6078ZM163.171 61.6078C162.897 61.6078 162.649 61.5454 162.428 61.4207C162.207 61.2919 162.03 61.1088 161.897 60.8713C161.768 60.6298 161.704 60.336 161.704 59.9899C161.704 59.6438 161.768 59.352 161.897 59.1146C162.026 58.8731 162.201 58.69 162.422 58.5652C162.643 58.4405 162.893 58.3781 163.171 58.3781C163.472 58.3781 163.742 58.4465 163.98 58.5833C164.221 58.7161 164.41 58.9053 164.547 59.1508C164.684 59.3923 164.752 59.672 164.752 59.9899C164.752 60.3119 164.684 60.5936 164.547 60.8351C164.41 61.0766 164.221 61.2657 163.98 61.4026C163.742 61.5394 163.472 61.6078 163.171 61.6078ZM161.535 62.7488V58.4083H161.945V59.3621L161.903 59.996L161.963 60.6359V62.7488H161.535ZM163.14 61.2275C163.366 61.2275 163.567 61.1772 163.744 61.0766C163.921 60.9719 164.062 60.827 164.167 60.6419C164.271 60.4528 164.324 60.2354 164.324 59.9899C164.324 59.7444 164.271 59.5291 164.167 59.344C164.062 59.1589 163.921 59.014 163.744 58.9093C163.567 58.8047 163.366 58.7524 163.14 58.7524C162.915 58.7524 162.712 58.8047 162.531 58.9093C162.354 59.014 162.213 59.1589 162.108 59.344C162.008 59.5291 161.957 59.7444 161.957 59.9899C161.957 60.2354 162.008 60.4528 162.108 60.6419C162.213 60.827 162.354 60.9719 162.531 61.0766C162.712 61.1772 162.915 61.2275 163.14 61.2275ZM168.53 61.6078C168.256 61.6078 168.009 61.5454 167.787 61.4207C167.566 61.2919 167.389 61.1088 167.256 60.8713C167.127 60.6298 167.063 60.336 167.063 59.9899C167.063 59.6438 167.127 59.352 167.256 59.1146C167.385 58.8731 167.56 58.69 167.781 58.5652C168.003 58.4405 168.252 58.3781 168.53 58.3781C168.832 58.3781 169.101 58.4465 169.339 58.5833C169.58 58.7161 169.769 58.9053 169.906 59.1508C170.043 59.3923 170.111 59.672 170.111 59.9899C170.111 60.3119 170.043 60.5936 169.906 60.8351C169.769 61.0766 169.58 61.2657 169.339 61.4026C169.101 61.5394 168.832 61.6078 168.53 61.6078ZM166.894 62.7488V58.4083H167.304V59.3621L167.262 59.996L167.322 60.6359V62.7488H166.894ZM168.5 61.2275C168.725 61.2275 168.926 61.1772 169.103 61.0766C169.28 60.9719 169.421 60.827 169.526 60.6419C169.631 60.4528 169.683 60.2354 169.683 59.9899C169.683 59.7444 169.631 59.5291 169.526 59.344C169.421 59.1589 169.28 59.014 169.103 58.9093C168.926 58.8047 168.725 58.7524 168.5 58.7524C168.274 58.7524 168.071 58.8047 167.89 58.9093C167.713 59.014 167.572 59.1589 167.467 59.344C167.367 59.5291 167.316 59.7444 167.316 59.9899C167.316 60.2354 167.367 60.4528 167.467 60.6419C167.572 60.827 167.713 60.9719 167.89 61.0766C168.071 61.1772 168.274 61.2275 168.5 61.2275ZM173.599 61.6078C173.269 61.6078 172.979 61.5394 172.73 61.4026C172.48 61.2617 172.285 61.0705 172.144 60.8291C172.003 60.5836 171.933 60.3039 171.933 59.9899C171.933 59.676 171.999 59.3983 172.132 59.1568C172.269 58.9154 172.454 58.7262 172.688 58.5894C172.925 58.4485 173.191 58.3781 173.484 58.3781C173.782 58.3781 174.046 58.4465 174.275 58.5833C174.509 58.7161 174.692 58.9053 174.825 59.1508C174.957 59.3923 175.024 59.672 175.024 59.9899C175.024 60.0101 175.022 60.0322 175.018 60.0563C175.018 60.0765 175.018 60.0986 175.018 60.1227H172.259V59.8028H174.788L174.619 59.9296C174.619 59.7002 174.569 59.4969 174.468 59.3198C174.372 59.1387 174.239 58.9979 174.07 58.8973C173.901 58.7966 173.706 58.7463 173.484 58.7463C173.267 58.7463 173.072 58.7966 172.899 58.8973C172.726 58.9979 172.591 59.1387 172.494 59.3198C172.398 59.5009 172.35 59.7082 172.35 59.9416V60.008C172.35 60.2495 172.402 60.4628 172.506 60.648C172.615 60.8291 172.764 60.9719 172.953 61.0766C173.146 61.1772 173.366 61.2275 173.611 61.2275C173.804 61.2275 173.984 61.1933 174.149 61.1249C174.318 61.0565 174.462 60.9518 174.583 60.811L174.825 61.0886C174.684 61.2577 174.507 61.3865 174.293 61.475C174.084 61.5636 173.853 61.6078 173.599 61.6078ZM178.782 58.3781C179.04 58.3781 179.265 58.4284 179.458 58.529C179.655 58.6256 179.808 58.7745 179.917 58.9757C180.03 59.177 180.086 59.4305 180.086 59.7364V61.5776H179.657V59.7786C179.657 59.4446 179.573 59.1931 179.404 59.024C179.239 58.851 179.005 58.7644 178.703 58.7644C178.478 58.7644 178.281 58.8107 178.112 58.9033C177.947 58.9918 177.818 59.1226 177.725 59.2957C177.637 59.4647 177.593 59.67 177.593 59.9115V61.5776H177.164V58.4083H177.575V59.2776L177.508 59.1146C177.609 58.8852 177.77 58.7061 177.991 58.5773C178.212 58.4445 178.476 58.3781 178.782 58.3781ZM182.554 61.6078C182.465 61.6078 182.389 61.5756 182.324 61.5112C182.264 61.4468 182.234 61.3684 182.234 61.2758C182.234 61.1792 182.264 61.1007 182.324 61.0404C182.389 60.98 182.465 60.9498 182.554 60.9498C182.642 60.9498 182.717 60.98 182.777 61.0404C182.841 61.1007 182.874 61.1792 182.874 61.2758C182.874 61.3684 182.841 61.4468 182.777 61.5112C182.717 61.5756 182.642 61.6078 182.554 61.6078Z" fill="white"/>
<path d="M118.556 0C76.7438 21.7743 53.6846 34.5691 12.9536 57.9954C38.708 48.0742 53.1065 42.2676 78.6195 30.8925C46.4299 67.8248 29.3622 88.5176 0 125.413C54.4532 95.2412 76.6881 82.3074 105.59 64.3951C82.0665 73.5269 68.7409 79.1227 44.744 89.8852C74.3192 55.578 90.4626 35.8786 118.556 0Z" fill="#FFCD17"/>
</svg>
